<mxfile host="app.diagrams.net" modified="2021-04-09T17:27:50.715Z" agent="5.0 (Windows NT 10.0; Win64; x64) AppleWebKit/537.36 (KHTML, like Gecko) Chrome/89.0.4389.114 Safari/537.36" etag="Aa7_oakJxZ4DwVTMuYed" version="14.5.8" type="github">
  <diagram id="fB9Eh8dIpnwtOsZ-yIyv" name="Page-1">
    <mxGraphModel dx="1360" dy="834" grid="1" gridSize="10" guides="1" tooltips="1" connect="1" arrows="1" fold="1" page="1" pageScale="1" pageWidth="850" pageHeight="1100" math="0" shadow="0">
      <root>
        <mxCell id="0" />
        <mxCell id="1" parent="0" />
        <mxCell id="yEI-yNnaO1hdgGgS4cHr-19" value="" style="rounded=0;whiteSpace=wrap;html=1;fillColor=#d0cee2;strokeColor=none;" vertex="1" parent="1">
          <mxGeometry x="120" y="80" width="520" height="290" as="geometry" />
        </mxCell>
        <mxCell id="yEI-yNnaO1hdgGgS4cHr-1" value="Config" style="rounded=0;whiteSpace=wrap;html=1;fillColor=#b0e3e6;strokeColor=#0e8088;" vertex="1" parent="1">
          <mxGeometry x="160" y="120" width="80" height="40" as="geometry" />
        </mxCell>
        <mxCell id="yEI-yNnaO1hdgGgS4cHr-3" value="Stats" style="rounded=0;whiteSpace=wrap;html=1;fillColor=#b0e3e6;strokeColor=#0e8088;" vertex="1" parent="1">
          <mxGeometry x="250" y="140" width="80" height="40" as="geometry" />
        </mxCell>
        <mxCell id="yEI-yNnaO1hdgGgS4cHr-4" value="API" style="rounded=0;whiteSpace=wrap;html=1;fillColor=#b0e3e6;strokeColor=#0e8088;" vertex="1" parent="1">
          <mxGeometry x="345" y="100" width="80" height="40" as="geometry" />
        </mxCell>
        <mxCell id="yEI-yNnaO1hdgGgS4cHr-5" value="IPC" style="rounded=0;whiteSpace=wrap;html=1;fillColor=#b0e3e6;strokeColor=#0e8088;" vertex="1" parent="1">
          <mxGeometry x="440" y="140" width="80" height="40" as="geometry" />
        </mxCell>
        <mxCell id="yEI-yNnaO1hdgGgS4cHr-6" value="XLATE" style="rounded=0;whiteSpace=wrap;html=1;fillColor=#b0e3e6;strokeColor=#0e8088;" vertex="1" parent="1">
          <mxGeometry x="200" y="260" width="50" height="30" as="geometry" />
        </mxCell>
        <mxCell id="yEI-yNnaO1hdgGgS4cHr-7" value="LIMITER APIs" style="rounded=0;whiteSpace=wrap;html=1;fillColor=#b0e3e6;strokeColor=#0e8088;" vertex="1" parent="1">
          <mxGeometry x="160" y="200" width="440" height="30" as="geometry" />
        </mxCell>
        <mxCell id="yEI-yNnaO1hdgGgS4cHr-8" value="Limiter-1" style="rounded=0;whiteSpace=wrap;html=1;fillColor=#b0e3e6;strokeColor=#0e8088;" vertex="1" parent="1">
          <mxGeometry x="200" y="290" width="50" height="30" as="geometry" />
        </mxCell>
        <mxCell id="yEI-yNnaO1hdgGgS4cHr-11" value="XLATE" style="rounded=0;whiteSpace=wrap;html=1;fillColor=#b0e3e6;strokeColor=#0e8088;" vertex="1" parent="1">
          <mxGeometry x="270" y="260" width="50" height="30" as="geometry" />
        </mxCell>
        <mxCell id="yEI-yNnaO1hdgGgS4cHr-12" value="Limiter-2" style="rounded=0;whiteSpace=wrap;html=1;fillColor=#b0e3e6;strokeColor=#0e8088;" vertex="1" parent="1">
          <mxGeometry x="270" y="290" width="50" height="30" as="geometry" />
        </mxCell>
        <mxCell id="yEI-yNnaO1hdgGgS4cHr-13" value="XLATE" style="rounded=0;whiteSpace=wrap;html=1;fillColor=#b0e3e6;strokeColor=#0e8088;" vertex="1" parent="1">
          <mxGeometry x="340" y="260" width="50" height="30" as="geometry" />
        </mxCell>
        <mxCell id="yEI-yNnaO1hdgGgS4cHr-14" value="Limiter-3" style="rounded=0;whiteSpace=wrap;html=1;fillColor=#b0e3e6;strokeColor=#0e8088;" vertex="1" parent="1">
          <mxGeometry x="340" y="290" width="50" height="30" as="geometry" />
        </mxCell>
        <mxCell id="yEI-yNnaO1hdgGgS4cHr-15" value="" style="endArrow=none;dashed=1;html=1;dashPattern=1 3;strokeWidth=2;fillColor=#b0e3e6;strokeColor=#0e8088;" edge="1" parent="1">
          <mxGeometry width="50" height="50" relative="1" as="geometry">
            <mxPoint x="410" y="290" as="sourcePoint" />
            <mxPoint x="490" y="290" as="targetPoint" />
          </mxGeometry>
        </mxCell>
        <mxCell id="yEI-yNnaO1hdgGgS4cHr-16" value="XLATE" style="rounded=0;whiteSpace=wrap;html=1;fillColor=#b0e3e6;strokeColor=#0e8088;" vertex="1" parent="1">
          <mxGeometry x="510" y="260" width="50" height="30" as="geometry" />
        </mxCell>
        <mxCell id="yEI-yNnaO1hdgGgS4cHr-17" value="Limiter-n" style="rounded=0;whiteSpace=wrap;html=1;fillColor=#b0e3e6;strokeColor=#0e8088;" vertex="1" parent="1">
          <mxGeometry x="510" y="290" width="50" height="30" as="geometry" />
        </mxCell>
        <mxCell id="yEI-yNnaO1hdgGgS4cHr-20" value="&lt;b&gt;Falken Lib&lt;/b&gt;" style="text;html=1;strokeColor=none;fillColor=none;align=center;verticalAlign=middle;whiteSpace=wrap;rounded=0;" vertex="1" parent="1">
          <mxGeometry x="120" y="60" width="80" height="20" as="geometry" />
        </mxCell>
        <mxCell id="yEI-yNnaO1hdgGgS4cHr-21" value="Throttle-&lt;br&gt;Provider" style="rounded=0;whiteSpace=wrap;html=1;fillColor=#b0e3e6;strokeColor=#0e8088;" vertex="1" parent="1">
          <mxGeometry x="530" y="90" width="80" height="40" as="geometry" />
        </mxCell>
      </root>
    </mxGraphModel>
  </diagram>
</mxfile>
